<?xml version="1.0" standalone="no"?>
<!DOCTYPE svg PUBLIC "-//W3C//DTD SVG 20010904//EN"
 "http://www.w3.org/TR/2001/REC-SVG-20010904/DTD/svg10.dtd">
<svg version="1.0" xmlns="http://www.w3.org/2000/svg"
 width="806.000000pt" height="592.000000pt" viewBox="0 0 806.000000 592.000000"
 preserveAspectRatio="xMidYMid meet">

<g transform="translate(0.000000,592.000000) scale(0.100000,-0.100000)"
fill="#000000" stroke="none">
<path d="M0 2960 l0 -2960 4030 0 4030 0 0 2960 0 2960 -4030 0 -4030 0 0
-2960z m4458 938 l-3 -253 -82 -3 -83 -3 0 171 0 170 -1055 0 -1055 0 2 -1052
3 -1053 1050 0 1050 0 3 128 3 127 84 0 85 0 0 -215 0 -215 -1225 0 -1225 0 0
1225 0 1225 1225 0 1225 0 -2 -252z m835 -350 c33 -17 46 -39 47 -78 0 -42
-71 -261 -84 -257 -5 2 -27 52 -48 113 -45 127 -46 175 -3 211 29 26 55 29 88
11z m-1653 -33 c0 -10 -10 -15 -29 -15 -16 0 -39 -9 -52 -19 l-24 -19 0 -406
c0 -319 3 -408 13 -418 20 -20 169 -17 208 5 70 37 124 120 154 235 6 25 17
42 25 42 12 0 15 -26 17 -150 0 -82 1 -156 2 -162 1 -10 -79 -13 -366 -14
-303 -1 -368 1 -368 12 0 8 10 14 24 14 13 0 34 9 47 19 l24 19 0 402 0 402
-24 19 c-13 10 -34 19 -47 19 -15 0 -24 6 -24 15 0 13 30 15 210 15 180 0 210
-2 210 -15z m1310 -130 l0 -105 80 0 c64 0 80 -3 80 -15 0 -12 -16 -15 -80
-15 l-80 0 0 -262 c0 -285 7 -337 43 -339 42 -2 52 2 83 36 34 39 49 37 31 -3
-32 -76 -116 -121 -201 -106 -60 9 -91 29 -118 71 -22 37 -23 44 -26 321 l-3
282 -55 0 c-41 0 -54 4 -54 15 0 12 13 15 55 15 l55 0 0 84 0 85 58 7 c31 3
71 12 87 19 17 8 33 14 38 14 4 1 7 -46 7 -104z m-472 -117 c76 -36 112 -98
128 -215 l7 -53 -187 0 c-211 0 -191 10 -187 -90 3 -74 22 -128 60 -171 67
-75 170 -71 246 8 49 51 66 43 35 -16 -54 -108 -131 -155 -251 -155 -173 0
-277 108 -294 305 -16 177 52 328 173 381 93 41 190 44 270 6z m1321 1 c57
-25 70 -24 81 7 9 22 33 31 31 11 -1 -4 -1 -56 -1 -117 0 -85 -3 -110 -13
-110 -8 0 -21 25 -30 60 -13 44 -28 71 -57 100 -36 36 -45 40 -89 40 -67 0
-96 -24 -95 -79 2 -57 19 -77 136 -169 117 -91 152 -125 167 -165 25 -66 4
-164 -46 -209 -73 -66 -215 -81 -322 -34 -62 26 -66 27 -78 10 -7 -10 -13 -21
-13 -26 0 -4 -7 -8 -15 -8 -13 0 -15 19 -13 133 2 104 6 132 17 132 8 0 20
-25 31 -65 32 -125 74 -170 159 -170 63 0 91 28 91 92 0 57 -25 89 -153 196
-103 86 -137 137 -137 209 0 64 18 103 62 136 77 57 191 67 287 26z m-1891
-886 c2 -9 -5 -11 -26 -7 -39 8 -62 -16 -62 -66 0 -52 22 -74 68 -65 32 6 34
5 23 -9 -19 -22 -67 -20 -91 4 -57 57 -22 165 52 158 17 -2 33 -9 36 -15z m92
-18 c0 -34 1 -35 40 -35 39 0 40 1 40 35 0 24 5 35 15 35 12 0 15 -17 15 -91
0 -68 -3 -90 -12 -87 -7 3 -14 21 -16 41 -3 36 -4 37 -43 37 -39 0 -39 0 -39
-40 0 -22 -4 -40 -10 -40 -6 0 -10 37 -10 90 0 53 4 90 10 90 6 0 10 -16 10
-35z m273 -48 c30 -94 31 -97 17 -97 -6 0 -15 11 -20 25 -8 20 -16 25 -44 25
-28 0 -35 -4 -40 -25 -6 -23 -26 -36 -26 -17 0 11 47 149 55 162 16 25 33 4
58 -73z m187 73 c0 -5 -13 -10 -30 -10 l-30 0 0 -80 c0 -47 -4 -80 -10 -80 -6
0 -10 33 -10 80 l0 80 -30 0 c-16 0 -30 5 -30 10 0 6 30 10 70 10 40 0 70 -4
70 -10z m141 0 c21 -12 26 -54 8 -66 -8 -5 -6 -10 5 -16 23 -13 20 -54 -6 -72
-12 -9 -39 -16 -60 -16 l-38 0 0 90 0 90 36 0 c19 0 44 -5 55 -10z m119 -54
c0 -80 6 -96 36 -96 31 0 44 32 44 106 0 30 5 54 10 54 17 0 12 -133 -6 -158
-18 -25 -60 -29 -89 -8 -27 20 -36 166 -11 166 13 0 16 -12 16 -64z m274 39
c62 -57 9 -165 -76 -153 -22 3 -23 7 -26 91 l-3 87 39 0 c28 0 47 -7 66 -25z
m190 0 c62 -57 9 -165 -76 -153 -22 3 -23 7 -26 91 l-3 87 39 0 c28 0 47 -7
66 -25z m104 -17 l19 -43 22 43 c12 23 26 42 31 42 6 0 -1 -22 -15 -50 -15
-29 -25 -66 -25 -91 0 -55 -23 -47 -31 12 -3 24 -15 63 -27 87 -18 34 -20 42
-8 42 9 0 24 -19 34 -42z"/>
<path d="M4325 3260 c-46 -17 -72 -69 -84 -167 l-7 -63 104 0 105 0 -7 64
c-13 131 -52 188 -111 166z"/>
<path d="M4216 2338 c-9 -35 -8 -38 15 -38 15 0 19 4 15 16 -3 9 -6 22 -6 30
0 22 -17 16 -24 -8z"/>
<path d="M4532 2353 c3 -32 25 -40 52 -20 28 20 14 47 -24 47 -28 0 -31 -3
-28 -27z"/>
<path d="M4537 2304 c-4 -4 -7 -20 -7 -36 0 -27 3 -29 31 -26 35 3 60 31 44
47 -14 14 -59 23 -68 15z"/>
<path d="M4920 2310 c0 -61 2 -70 18 -70 29 0 52 33 52 73 0 39 -21 67 -51 67
-17 0 -19 -8 -19 -70z"/>
<path d="M5110 2310 c0 -61 2 -70 18 -70 29 0 52 33 52 73 0 39 -21 67 -51 67
-17 0 -19 -8 -19 -70z"/>
</g>
</svg>
